<mxfile host="app.diagrams.net" modified="2023-12-25T02:59:45.323Z" agent="Mozilla/5.0 (Macintosh; Intel Mac OS X 10_15_7) AppleWebKit/537.36 (KHTML, like Gecko) Chrome/120.0.0.0 Safari/537.36" etag="IMpLr_UaVteD-_l-Rtte" version="22.1.11" type="device">
  <diagram name="Page-1" id="Wm0TvbHHnRDKpL7S-P7M">
    <mxGraphModel dx="1147" dy="609" grid="1" gridSize="10" guides="1" tooltips="1" connect="1" arrows="1" fold="1" page="1" pageScale="1" pageWidth="850" pageHeight="1100" math="0" shadow="0">
      <root>
        <mxCell id="0" />
        <mxCell id="1" parent="0" />
        <mxCell id="RXQSxUMIimmTbb9DB9HK-1" value="# Step Pulses Generation&lt;br&gt;---&lt;br&gt;ISR(TIMER1_COMPA_vect)&lt;br&gt;&lt;br&gt;&lt;div style=&quot;color: rgb(204, 204, 204); background-color: rgb(31, 31, 31); font-family: Menlo, Monaco, &amp;quot;Courier New&amp;quot;, monospace; line-height: 18px;&quot;&gt;STEP_PORT &lt;span style=&quot;color: #d4d4d4;&quot;&gt;=&lt;/span&gt; (&lt;span style=&quot;color: #569cd6;&quot;&gt;STEP_PORT&lt;/span&gt; &lt;span style=&quot;color: #d4d4d4;&quot;&gt;&amp;amp;&lt;/span&gt; &lt;span style=&quot;color: #d4d4d4;&quot;&gt;~&lt;/span&gt;&lt;span style=&quot;color: #569cd6;&quot;&gt;STEP_MASK&lt;/span&gt;) &lt;span style=&quot;color: #d4d4d4;&quot;&gt;|&lt;/span&gt; &lt;span style=&quot;color: #9cdcfe;&quot;&gt;st&lt;/span&gt;.&lt;span style=&quot;color: #9cdcfe;&quot;&gt;step_outbits;&lt;/span&gt;&lt;/div&gt;&lt;div style=&quot;color: rgb(204, 204, 204); background-color: rgb(31, 31, 31); font-family: Menlo, Monaco, &amp;quot;Courier New&amp;quot;, monospace; line-height: 18px;&quot;&gt;&lt;span style=&quot;color: #9cdcfe;&quot;&gt;&lt;br&gt;&lt;/span&gt;&lt;/div&gt;&lt;div style=&quot;color: rgb(204, 204, 204); background-color: rgb(31, 31, 31); font-family: Menlo, Monaco, &amp;quot;Courier New&amp;quot;, monospace; line-height: 18px;&quot;&gt;&lt;span style=&quot;color: #9cdcfe;&quot;&gt;&lt;br&gt;&lt;/span&gt;&lt;/div&gt;" style="rounded=1;whiteSpace=wrap;html=1;align=left;" vertex="1" parent="1">
          <mxGeometry x="80" y="130" width="450" height="230" as="geometry" />
        </mxCell>
        <mxCell id="RXQSxUMIimmTbb9DB9HK-2" value="# who updates the st.step_outbits&lt;br&gt;&lt;div style=&quot;text-align: left;&quot;&gt;&lt;span style=&quot;background-color: initial;&quot;&gt;---&lt;/span&gt;&lt;/div&gt;&lt;div style=&quot;text-align: left;&quot;&gt;&lt;span style=&quot;background-color: initial;&quot;&gt;&lt;br&gt;&lt;/span&gt;&lt;/div&gt;&lt;div style=&quot;text-align: left;&quot;&gt;&lt;span style=&quot;background-color: initial;&quot;&gt;&lt;br&gt;&lt;/span&gt;&lt;/div&gt;" style="rounded=1;whiteSpace=wrap;html=1;" vertex="1" parent="1">
          <mxGeometry x="590" y="150" width="220" height="150" as="geometry" />
        </mxCell>
      </root>
    </mxGraphModel>
  </diagram>
</mxfile>
